<svg xmlns="http://www.w3.org/2000/svg" viewBox="0 0 841.89 595.28">
  <defs>
    <style>
      .cls-1 {
        fill: #878787;
      }

      .cls-2 {
        fill: #1d1d1b;
      }
    </style>
  </defs>
  <title>2kolory</title>
  <g id="Warstwa_2" data-name="Warstwa 2">
    <g>
      <path class="cls-1" d="M460.82,447.3a170.36,170.36,0,0,0,16.9,6.05h0a30.1,30.1,0,0,0,7.59,1.25h.06a15.18,15.18,0,0,0,3.83-.48h0a12.72,12.72,0,0,0,5.8-3.38h0l0-.05.07-.06h0a12.76,12.76,0,0,0,2.64-4.11,13,13,0,0,0,.89-4.61v-.24h0v-.09h0a14.07,14.07,0,0,0-.77-4.29,17,17,0,0,0-1.3-2.8l-.05-.08,0-.07a25,25,0,0,0-2.87-3.83l0,0a67.59,67.59,0,0,0-7-6.5c-5.35-4.44-12.32-9.54-20.15-15.11-15.62-11.07-34.64-23.91-48.68-34.64l0,0c-4.63-3.52-8.75-6.87-11.89-9.71-.54-.47-1-.92-1.49-1.37A71.37,71.37,0,0,0,472.9,292V210.44c47.92-24.22,107.88-39.75,173.56-42.66C556.35,182,540.88,244.43,533.52,293c-2.22,14.61,8.55,20.59,3.87,30.66-11,23.6-39.83,47.48-32.65,63.65,4.68,10.55,10.07,4.13,21.58,12.18,6.8,4.75-5,9.91-3.32,16.6,1,4.21,9.91,4,9.79,8.43-.07,2.41-7.28,2.43-4.56,12.61,2.29,8.57,9.28,5.62,8.32,10.69-5.34,28.17-1.18,52.71,19.11,52.4,14-.21,32.75-2.41,54.27-.35,17.27,1.66,39.11,30.57,49.65,47-60.19-1.1-116.09-12.72-162.84-32.12C450.47,495.58,371.53,540.32,363.86,536c-11.2-6.31,53.62-57.74,27.1-95.95a214.81,214.81,0,0,1-19.33-33.41c23.14,11,46.59,22,66,30.72C446.28,441.2,454.09,444.58,460.82,447.3Z"/>
      <path class="cls-2" d="M216.85,305.33c16.12,1.45,28.56,5.66,38.86,7.75,14.89,3,22.38-14.46,22.34-35.93,0-3.86,6.83-.73,9.69-6.72,3.4-7.12-2.94-8.13-2.66-9.92.52-3.25,8.07-1.9,9.42-4.85,2.15-4.7-7.91-10.12-2.24-12.68,9.58-4.34,16.84,1.14,21.74-6,7.52-10.92-15.05-25.75-19.86-44.63-2.05-8.06,8.92-19,11.89-36.87,6.83-40.93-2.35-89.32-93.66-107.13H400.43A59.83,59.83,0,0,1,460.08,108V292a59.83,59.83,0,0,1-59.65,59.65s-14.29-.4-12.7,9.89c2.42,15.69,104.48,74.07,97.85,81.08-6.16,6.52-163.11-73.78-203.22-89.36-5-1.95-13.95-1.61-13.95-1.61h-86.1C191.78,337,204.88,304.25,216.85,305.33Z"/>
    </g>
  </g>
</svg>
