<svg xmlns="http://www.w3.org/2000/svg" viewBox="0 0 841.89 595.28">
  <defs>
    <style>
      .cls-1 {
        fill: #1d1d1b;
      }
    </style>
  </defs>
  <title>czarne</title>
  <g id="Warstwa_2" data-name="Warstwa 2">
    <g>
      <path class="cls-1" d="M433.76,435.15a165.32,165.32,0,0,0,16.89,6.05h0l0,0a29.67,29.67,0,0,0,7.59,1.24h.06a14.73,14.73,0,0,0,3.83-.48h0a12.72,12.72,0,0,0,5.8-3.38h0l0-.05.07-.06h0a12.72,12.72,0,0,0,3.52-8.72v-.24h0v-.08h0a14,14,0,0,0-.77-4.29,17,17,0,0,0-1.3-2.8l-.05-.08,0-.08a25,25,0,0,0-2.87-3.83l0,0a67.52,67.52,0,0,0-7-6.5c-5.35-4.45-12.32-9.55-20.15-15.11-15.62-11.07-34.64-23.91-48.68-34.64l0,0c-4.63-3.53-8.75-6.87-11.9-9.71-.53-.48-1-.93-1.48-1.38a71.37,71.37,0,0,0,68.46-71.11V198.29c47.91-24.21,107.88-39.75,173.56-42.66-90.11,14.21-105.58,76.66-112.94,125.27-2.22,14.6,8.55,20.58,3.87,30.65-11,23.6-39.83,47.48-32.66,63.66,4.68,10.55,10.08,4.12,21.59,12.17,6.8,4.76-5,9.91-3.32,16.61,1,4.2,9.91,4,9.79,8.42-.07,2.41-7.28,2.44-4.56,12.61,2.28,8.57,9.28,5.63,8.32,10.69-5.34,28.18-1.18,52.71,19.11,52.41,14-.21,32.75-2.42,54.27-.36,17.27,1.66,39.11,30.57,49.65,47-60.2-1.09-116.09-12.72-162.85-32.12-46.26-19.21-125.2,25.53-132.87,21.21-11.2-6.31,53.61-57.74,27.1-95.94a216.24,216.24,0,0,1-19.34-33.42c23.15,11,46.6,22.05,66,30.72C419.22,429.06,427,432.43,433.76,435.15Z"/>
      <path class="cls-1" d="M189.79,293.18c16.12,1.45,28.56,5.66,38.86,7.76C243.54,304,251,286.47,251,265c0-3.86,6.82-.73,9.69-6.72,3.4-7.12-2.94-8.13-2.66-9.91.52-3.26,8.06-1.9,9.41-4.85,2.15-4.7-7.9-10.12-2.23-12.68,9.58-4.34,16.84,1.13,21.74-6,7.52-10.91-15.05-25.74-19.86-44.63-2.06-8.06,8.91-19,11.89-36.86,6.83-40.93-2.35-89.33-93.66-107.14H373.37A59.82,59.82,0,0,1,433,95.87v184a59.82,59.82,0,0,1-59.64,59.64s-14.29-.39-12.7,9.89c2.41,15.7,104.48,74.08,97.85,81.09C452.36,437,295.41,356.7,255.3,341.13c-5-2-14-1.62-14-1.62H155.25C164.72,324.89,177.82,292.1,189.79,293.18Z"/>
    </g>
  </g>
</svg>
